<svg xmlns="http://www.w3.org/2000/svg" width="128" height="128" viewBox="0 0 128 128">
  <defs>
    <linearGradient id="bg" x1="0%" y1="0%" x2="100%" y2="100%">
      <stop offset="0%" style="stop-color:#6b7cff;stop-opacity:1" />
      <stop offset="100%" style="stop-color:#8b9aff;stop-opacity:1" />
    </linearGradient>
  </defs>
  <rect width="128" height="128" rx="24" fill="#0f0f0f"/>
  <rect x="8" y="8" width="112" height="112" rx="20" fill="none" stroke="url(#bg)" stroke-width="2" opacity="0.3"/>
  <!-- Anvil / Forge symbol -->
  <path d="M 34 88 L 94 88 L 88 78 L 40 78 Z" fill="#6b7cff" opacity="0.9"/>
  <path d="M 44 78 L 44 58 C 44 48 52 40 64 40 C 76 40 84 48 84 58 L 84 78" fill="none" stroke="#6b7cff" stroke-width="5" stroke-linecap="round"/>
  <!-- Document lines -->
  <line x1="54" y1="52" x2="74" y2="52" stroke="#e8e8e8" stroke-width="2.5" stroke-linecap="round" opacity="0.8"/>
  <line x1="54" y1="60" x2="70" y2="60" stroke="#e8e8e8" stroke-width="2.5" stroke-linecap="round" opacity="0.6"/>
  <line x1="54" y1="68" x2="66" y2="68" stroke="#e8e8e8" stroke-width="2.5" stroke-linecap="round" opacity="0.4"/>
  <!-- Spark -->
  <circle cx="88" cy="36" r="3" fill="#e8a838" opacity="0.9"/>
  <circle cx="94" cy="30" r="2" fill="#e8a838" opacity="0.6"/>
  <circle cx="82" cy="32" r="1.5" fill="#e8a838" opacity="0.7"/>
</svg>
